<svg width="37" height="37" viewBox="0 0 37 37" fill="none" xmlns="http://www.w3.org/2000/svg">
<path d="M14.9893 19.9726C15.705 20.9295 16.6182 21.7212 17.6668 22.2942C18.7155 22.8671 19.8751 23.2078 21.067 23.2932C22.2589 23.3785 23.4552 23.2065 24.5748 22.7889C25.6944 22.3713 26.7111 21.7177 27.5559 20.8726L32.5559 15.8726C34.0739 14.3009 34.9139 12.1959 34.8949 10.0109C34.8759 7.82595 33.9995 5.73584 32.4544 4.19078C30.9094 2.64571 28.8192 1.7693 26.6343 1.75032C24.4493 1.73133 22.3443 2.57128 20.7726 4.08927L17.9059 6.93926M21.6559 16.6393C20.9402 15.6824 20.027 14.8906 18.9783 14.3177C17.9297 13.7448 16.7701 13.4041 15.5782 13.3187C14.3863 13.2333 13.19 13.4053 12.0704 13.823C10.9508 14.2406 9.93408 14.8941 9.08927 15.7393L4.08927 20.7393C2.57128 22.3109 1.73133 24.416 1.75032 26.6009C1.7693 28.7859 2.64571 30.876 4.19078 32.4211C5.73584 33.9662 7.82595 34.8426 10.0109 34.8615C12.1959 34.8805 14.3009 34.0406 15.8726 32.5226L18.7226 29.6726" stroke="#F3F3F3" stroke-width="3.5" stroke-linecap="round" stroke-linejoin="round"/>
</svg>
