<svg width="18" height="18" viewBox="0 0 18 18" fill="none" xmlns="http://www.w3.org/2000/svg">
<path d="M7.5 10H1.25C0.895833 10 0.598958 9.88021 0.359375 9.64062C0.119792 9.40104 0 9.10417 0 8.75C0 8.39583 0.119792 8.09896 0.359375 7.85938C0.598958 7.61979 0.895833 7.5 1.25 7.5H7.5V1.25C7.5 0.895833 7.61979 0.598958 7.85938 0.359375C8.09896 0.119792 8.39583 0 8.75 0C9.10417 0 9.40104 0.119792 9.64062 0.359375C9.88021 0.598958 10 0.895833 10 1.25V7.5H16.25C16.6042 7.5 16.901 7.61979 17.1406 7.85938C17.3802 8.09896 17.5 8.39583 17.5 8.75C17.5 9.10417 17.3802 9.40104 17.1406 9.64062C16.901 9.88021 16.6042 10 16.25 10H10V16.25C10 16.6042 9.88021 16.901 9.64062 17.1406C9.40104 17.3802 9.10417 17.5 8.75 17.5C8.39583 17.5 8.09896 17.3802 7.85938 17.1406C7.61979 16.901 7.5 16.6042 7.5 16.25V10Z" fill="white"/>
</svg>
