<svg width="20" height="22" viewBox="0 0 20 22" fill="none" xmlns="http://www.w3.org/2000/svg">
<path d="M0 19.375V8.125C0 7.72917 0.0885417 7.35417 0.265625 7C0.442708 6.64583 0.6875 6.35417 1 6.125L8.5 0.5C8.9375 0.166667 9.4375 0 10 0C10.5625 0 11.0625 0.166667 11.5 0.5L19 6.125C19.3125 6.35417 19.5573 6.64583 19.7344 7C19.9115 7.35417 20 7.72917 20 8.125V19.375C20 20.0625 19.7552 20.651 19.2656 21.1406C18.776 21.6302 18.1875 21.875 17.5 21.875H13.75C13.3958 21.875 13.099 21.7552 12.8594 21.5156C12.6198 21.276 12.5 20.9792 12.5 20.625V14.375C12.5 14.0208 12.3802 13.724 12.1406 13.4844C11.901 13.2448 11.6042 13.125 11.25 13.125H8.75C8.39583 13.125 8.09896 13.2448 7.85938 13.4844C7.61979 13.724 7.5 14.0208 7.5 14.375V20.625C7.5 20.9792 7.38021 21.276 7.14062 21.5156C6.90104 21.7552 6.60417 21.875 6.25 21.875H2.5C1.8125 21.875 1.22396 21.6302 0.734375 21.1406C0.244792 20.651 0 20.0625 0 19.375Z" fill="white"/>
</svg>
