<svg width="19" height="27" viewBox="0 0 19 27" fill="none" xmlns="http://www.w3.org/2000/svg">
<path d="M9.13609 26.1031C8.83155 26.1031 8.57052 26.0161 8.353 25.8421C8.13547 25.6681 7.97233 25.4397 7.86356 25.1569C7.45026 23.9387 6.9282 22.7967 6.29738 21.7308C5.6883 20.665 4.82908 19.4142 3.71969 17.9785C2.61031 16.5428 1.70758 15.1724 1.0115 13.8673C0.337165 12.5621 0 10.9851 0 9.13609C0 6.59103 0.88098 4.43753 2.64294 2.67557C4.42665 0.891856 6.59104 0 9.13609 0C11.6811 0 13.8347 0.891856 15.5966 2.67557C17.3803 4.43753 18.2722 6.59103 18.2722 9.13609C18.2722 11.1156 17.8915 12.7688 17.1302 14.0957C16.3906 15.4008 15.5314 16.6951 14.5525 17.9785C13.3778 19.5447 12.486 20.8499 11.8769 21.894C11.2896 22.9164 10.8002 24.004 10.4086 25.1569C10.2999 25.4614 10.1258 25.7007 9.88656 25.8747C9.66903 26.027 9.41887 26.1031 9.13609 26.1031ZM9.13609 21.4372C9.50588 20.6976 9.91918 19.9689 10.376 19.251C10.8545 18.5332 11.5506 17.5761 12.4642 16.3797C13.3996 15.1616 14.1609 14.0413 14.7483 13.0189C15.3573 11.9748 15.6619 10.6805 15.6619 9.13609C15.6619 7.33062 15.0202 5.79707 13.7368 4.53542C12.4751 3.25201 10.9416 2.61031 9.13609 2.61031C7.33062 2.61031 5.78619 3.25201 4.50279 4.53542C3.24114 5.79707 2.61031 7.33062 2.61031 9.13609C2.61031 10.6805 2.90397 11.9748 3.49129 13.0189C4.10036 14.0413 4.87258 15.1616 5.80794 16.3797C6.72155 17.5761 7.40676 18.5332 7.86356 19.251C8.34212 19.9689 8.7663 20.6976 9.13609 21.4372ZM9.13609 12.399C10.0497 12.399 10.8219 12.0836 11.4527 11.4527C12.0836 10.8219 12.399 10.0497 12.399 9.13609C12.399 8.22248 12.0836 7.45026 11.4527 6.81944C10.8219 6.18861 10.0497 5.8732 9.13609 5.8732C8.22248 5.8732 7.45026 6.18861 6.81944 6.81944C6.18861 7.45026 5.8732 8.22248 5.8732 9.13609C5.8732 10.0497 6.18861 10.8219 6.81944 11.4527C7.45026 12.0836 8.22248 12.399 9.13609 12.399Z" fill="#FEF7FF"/>
</svg>
